<mxfile host="app.diagrams.net" modified="2024-05-14T02:43:07.276Z" agent="Mozilla/5.0 (Windows NT 10.0; Win64; x64) AppleWebKit/537.36 (KHTML, like Gecko) Chrome/124.0.0.0 Safari/537.36" etag="ZETOAG2b9m8J1wljE1wt" version="24.4.0" type="github">
  <diagram id="C5RBs43oDa-KdzZeNtuy" name="Page-1">
    <mxGraphModel dx="1793" dy="933" grid="1" gridSize="10" guides="1" tooltips="1" connect="1" arrows="1" fold="1" page="1" pageScale="1" pageWidth="827" pageHeight="1169" math="0" shadow="0">
      <root>
        <mxCell id="WIyWlLk6GJQsqaUBKTNV-0" />
        <mxCell id="WIyWlLk6GJQsqaUBKTNV-1" parent="WIyWlLk6GJQsqaUBKTNV-0" />
        <mxCell id="euOmDowTNybzlJLy25Rz-7" value="User" style="shape=umlActor;verticalLabelPosition=bottom;verticalAlign=top;html=1;outlineConnect=0;" vertex="1" parent="WIyWlLk6GJQsqaUBKTNV-1">
          <mxGeometry x="130" y="210" width="40" height="80" as="geometry" />
        </mxCell>
        <mxCell id="euOmDowTNybzlJLy25Rz-15" value="" style="rounded=0;whiteSpace=wrap;html=1;" vertex="1" parent="WIyWlLk6GJQsqaUBKTNV-1">
          <mxGeometry x="210" y="90" width="310" height="510" as="geometry" />
        </mxCell>
        <mxCell id="euOmDowTNybzlJLy25Rz-16" value="View- All of schedule" style="ellipse;whiteSpace=wrap;html=1;" vertex="1" parent="WIyWlLk6GJQsqaUBKTNV-1">
          <mxGeometry x="355" y="250" width="115" height="60" as="geometry" />
        </mxCell>
        <mxCell id="euOmDowTNybzlJLy25Rz-17" value="View- Choice of schedule" style="ellipse;whiteSpace=wrap;html=1;" vertex="1" parent="WIyWlLk6GJQsqaUBKTNV-1">
          <mxGeometry x="315" y="430" width="120" height="60" as="geometry" />
        </mxCell>
        <mxCell id="euOmDowTNybzlJLy25Rz-19" value="시스템 (기능)목록" style="shape=table;startSize=30;container=1;collapsible=0;childLayout=tableLayout;strokeColor=default;fontSize=16;" vertex="1" parent="WIyWlLk6GJQsqaUBKTNV-1">
          <mxGeometry x="750" y="80" width="760" height="430" as="geometry" />
        </mxCell>
        <mxCell id="euOmDowTNybzlJLy25Rz-20" value="" style="shape=tableRow;horizontal=0;startSize=0;swimlaneHead=0;swimlaneBody=0;strokeColor=inherit;top=0;left=0;bottom=0;right=0;collapsible=0;dropTarget=0;fillColor=none;points=[[0,0.5],[1,0.5]];portConstraint=eastwest;fontSize=16;" vertex="1" parent="euOmDowTNybzlJLy25Rz-19">
          <mxGeometry y="30" width="760" height="60" as="geometry" />
        </mxCell>
        <mxCell id="euOmDowTNybzlJLy25Rz-21" value="기능/시스템 이름" style="shape=partialRectangle;html=1;whiteSpace=wrap;connectable=0;strokeColor=inherit;overflow=hidden;fillColor=none;top=0;left=0;bottom=0;right=0;pointerEvents=1;fontSize=16;" vertex="1" parent="euOmDowTNybzlJLy25Rz-20">
          <mxGeometry width="185" height="60" as="geometry">
            <mxRectangle width="185" height="60" as="alternateBounds" />
          </mxGeometry>
        </mxCell>
        <mxCell id="euOmDowTNybzlJLy25Rz-22" value="시스템의 간략한 세부사항" style="shape=partialRectangle;html=1;whiteSpace=wrap;connectable=0;strokeColor=inherit;overflow=hidden;fillColor=none;top=0;left=0;bottom=0;right=0;pointerEvents=1;fontSize=16;" vertex="1" parent="euOmDowTNybzlJLy25Rz-20">
          <mxGeometry x="185" width="336" height="60" as="geometry">
            <mxRectangle width="336" height="60" as="alternateBounds" />
          </mxGeometry>
        </mxCell>
        <mxCell id="euOmDowTNybzlJLy25Rz-23" value="사용 이름" style="shape=partialRectangle;html=1;whiteSpace=wrap;connectable=0;strokeColor=inherit;overflow=hidden;fillColor=none;top=0;left=0;bottom=0;right=0;pointerEvents=1;fontSize=16;" vertex="1" parent="euOmDowTNybzlJLy25Rz-20">
          <mxGeometry x="521" width="239" height="60" as="geometry">
            <mxRectangle width="239" height="60" as="alternateBounds" />
          </mxGeometry>
        </mxCell>
        <mxCell id="euOmDowTNybzlJLy25Rz-24" value="" style="shape=tableRow;horizontal=0;startSize=0;swimlaneHead=0;swimlaneBody=0;strokeColor=inherit;top=0;left=0;bottom=0;right=0;collapsible=0;dropTarget=0;fillColor=none;points=[[0,0.5],[1,0.5]];portConstraint=eastwest;fontSize=16;" vertex="1" parent="euOmDowTNybzlJLy25Rz-19">
          <mxGeometry y="90" width="760" height="166" as="geometry" />
        </mxCell>
        <mxCell id="euOmDowTNybzlJLy25Rz-25" value="일정등록" style="shape=partialRectangle;html=1;whiteSpace=wrap;connectable=0;strokeColor=inherit;overflow=hidden;fillColor=none;top=0;left=0;bottom=0;right=0;pointerEvents=1;fontSize=16;" vertex="1" parent="euOmDowTNybzlJLy25Rz-24">
          <mxGeometry width="185" height="166" as="geometry">
            <mxRectangle width="185" height="166" as="alternateBounds" />
          </mxGeometry>
        </mxCell>
        <mxCell id="euOmDowTNybzlJLy25Rz-26" value="&lt;div&gt;1. 사용자가 일정을 등록합니다.&lt;/div&gt;&lt;div&gt;2. 사용자가 모든 일정목록을 조회합니다.&lt;/div&gt;&lt;div&gt;3. 사용자가 선택한 일정목록을 조회합니다.&lt;/div&gt;" style="shape=partialRectangle;html=1;whiteSpace=wrap;connectable=0;strokeColor=inherit;overflow=hidden;fillColor=none;top=0;left=0;bottom=0;right=0;pointerEvents=1;fontSize=16;" vertex="1" parent="euOmDowTNybzlJLy25Rz-24">
          <mxGeometry x="185" width="336" height="166" as="geometry">
            <mxRectangle width="336" height="166" as="alternateBounds" />
          </mxGeometry>
        </mxCell>
        <mxCell id="euOmDowTNybzlJLy25Rz-27" value="1. 일정등록&lt;div&gt;2. 모든 일정 목록 조회&lt;/div&gt;&lt;div&gt;3. 선택한 일정 목록 조회&lt;/div&gt;" style="shape=partialRectangle;html=1;whiteSpace=wrap;connectable=0;strokeColor=inherit;overflow=hidden;fillColor=none;top=0;left=0;bottom=0;right=0;pointerEvents=1;fontSize=16;" vertex="1" parent="euOmDowTNybzlJLy25Rz-24">
          <mxGeometry x="521" width="239" height="166" as="geometry">
            <mxRectangle width="239" height="166" as="alternateBounds" />
          </mxGeometry>
        </mxCell>
        <mxCell id="euOmDowTNybzlJLy25Rz-28" value="" style="shape=tableRow;horizontal=0;startSize=0;swimlaneHead=0;swimlaneBody=0;strokeColor=inherit;top=0;left=0;bottom=0;right=0;collapsible=0;dropTarget=0;fillColor=none;points=[[0,0.5],[1,0.5]];portConstraint=eastwest;fontSize=16;" vertex="1" parent="euOmDowTNybzlJLy25Rz-19">
          <mxGeometry y="256" width="760" height="174" as="geometry" />
        </mxCell>
        <mxCell id="euOmDowTNybzlJLy25Rz-29" value="일정관리" style="shape=partialRectangle;html=1;whiteSpace=wrap;connectable=0;strokeColor=inherit;overflow=hidden;fillColor=none;top=0;left=0;bottom=0;right=0;pointerEvents=1;fontSize=16;" vertex="1" parent="euOmDowTNybzlJLy25Rz-28">
          <mxGeometry width="185" height="174" as="geometry">
            <mxRectangle width="185" height="174" as="alternateBounds" />
          </mxGeometry>
        </mxCell>
        <mxCell id="euOmDowTNybzlJLy25Rz-30" value="1. 사용자가 선택한 일정을&amp;nbsp;&lt;div&gt;조회합니다.&lt;/div&gt;&lt;div&gt;2. 사용자가 선택한 일정을 삭제합니다.&lt;/div&gt;&lt;div&gt;3. 선택한 일정을 수정합니다.&lt;/div&gt;" style="shape=partialRectangle;html=1;whiteSpace=wrap;connectable=0;strokeColor=inherit;overflow=hidden;fillColor=none;top=0;left=0;bottom=0;right=0;pointerEvents=1;fontSize=16;" vertex="1" parent="euOmDowTNybzlJLy25Rz-28">
          <mxGeometry x="185" width="336" height="174" as="geometry">
            <mxRectangle width="336" height="174" as="alternateBounds" />
          </mxGeometry>
        </mxCell>
        <mxCell id="euOmDowTNybzlJLy25Rz-31" value="1. 선택한 일정&amp;nbsp; 조회&lt;div&gt;&lt;div&gt;2. 선택한 일정 수정&lt;/div&gt;&lt;div&gt;3. 선택한 일정 삭제&lt;/div&gt;&lt;/div&gt;" style="shape=partialRectangle;html=1;whiteSpace=wrap;connectable=0;strokeColor=inherit;overflow=hidden;fillColor=none;top=0;left=0;bottom=0;right=0;pointerEvents=1;fontSize=16;" vertex="1" parent="euOmDowTNybzlJLy25Rz-28">
          <mxGeometry x="521" width="239" height="174" as="geometry">
            <mxRectangle width="239" height="174" as="alternateBounds" />
          </mxGeometry>
        </mxCell>
        <mxCell id="euOmDowTNybzlJLy25Rz-46" value="Modify- Choice of schedule" style="ellipse;whiteSpace=wrap;html=1;" vertex="1" parent="WIyWlLk6GJQsqaUBKTNV-1">
          <mxGeometry x="270" y="520" width="120" height="60" as="geometry" />
        </mxCell>
        <mxCell id="euOmDowTNybzlJLy25Rz-47" value="Delete- Choice of schedule" style="ellipse;whiteSpace=wrap;html=1;" vertex="1" parent="WIyWlLk6GJQsqaUBKTNV-1">
          <mxGeometry x="335" y="340" width="120" height="60" as="geometry" />
        </mxCell>
        <mxCell id="euOmDowTNybzlJLy25Rz-14" value="" style="endArrow=classic;html=1;rounded=0;" edge="1" parent="WIyWlLk6GJQsqaUBKTNV-1" target="euOmDowTNybzlJLy25Rz-16">
          <mxGeometry width="50" height="50" relative="1" as="geometry">
            <mxPoint x="170" y="270" as="sourcePoint" />
            <mxPoint x="300" y="210" as="targetPoint" />
            <Array as="points">
              <mxPoint x="170" y="270" />
            </Array>
          </mxGeometry>
        </mxCell>
        <mxCell id="euOmDowTNybzlJLy25Rz-48" value="" style="endArrow=classic;html=1;rounded=0;entryX=0.017;entryY=0.4;entryDx=0;entryDy=0;entryPerimeter=0;" edge="1" parent="WIyWlLk6GJQsqaUBKTNV-1" target="euOmDowTNybzlJLy25Rz-17">
          <mxGeometry width="50" height="50" relative="1" as="geometry">
            <mxPoint x="170" y="300" as="sourcePoint" />
            <mxPoint x="300" y="230" as="targetPoint" />
          </mxGeometry>
        </mxCell>
        <mxCell id="euOmDowTNybzlJLy25Rz-49" value="" style="endArrow=classic;html=1;rounded=0;entryX=0;entryY=0.5;entryDx=0;entryDy=0;" edge="1" parent="WIyWlLk6GJQsqaUBKTNV-1" target="euOmDowTNybzlJLy25Rz-46">
          <mxGeometry width="50" height="50" relative="1" as="geometry">
            <mxPoint x="160" y="320" as="sourcePoint" />
            <mxPoint x="230" y="380" as="targetPoint" />
          </mxGeometry>
        </mxCell>
        <mxCell id="euOmDowTNybzlJLy25Rz-50" value="" style="endArrow=classic;html=1;rounded=0;entryX=0;entryY=0.5;entryDx=0;entryDy=0;exitX=1;exitY=1;exitDx=0;exitDy=0;exitPerimeter=0;" edge="1" parent="WIyWlLk6GJQsqaUBKTNV-1" source="euOmDowTNybzlJLy25Rz-7" target="euOmDowTNybzlJLy25Rz-47">
          <mxGeometry width="50" height="50" relative="1" as="geometry">
            <mxPoint x="140" y="325" as="sourcePoint" />
            <mxPoint x="210" y="395" as="targetPoint" />
          </mxGeometry>
        </mxCell>
        <mxCell id="euOmDowTNybzlJLy25Rz-51" value="Register- schedule" style="ellipse;whiteSpace=wrap;html=1;" vertex="1" parent="WIyWlLk6GJQsqaUBKTNV-1">
          <mxGeometry x="355" y="170" width="123.5" height="60" as="geometry" />
        </mxCell>
        <mxCell id="euOmDowTNybzlJLy25Rz-52" value="" style="endArrow=classic;html=1;rounded=0;entryX=0;entryY=0.5;entryDx=0;entryDy=0;" edge="1" parent="WIyWlLk6GJQsqaUBKTNV-1" target="euOmDowTNybzlJLy25Rz-51">
          <mxGeometry width="50" height="50" relative="1" as="geometry">
            <mxPoint x="180" y="230" as="sourcePoint" />
            <mxPoint x="230" y="180" as="targetPoint" />
          </mxGeometry>
        </mxCell>
        <mxCell id="euOmDowTNybzlJLy25Rz-53" value="&amp;lt;&amp;lt;include&amp;gt;&amp;gt;" style="text;strokeColor=none;align=center;fillColor=none;html=1;verticalAlign=middle;whiteSpace=wrap;rounded=0;" vertex="1" parent="WIyWlLk6GJQsqaUBKTNV-1">
          <mxGeometry x="390" y="410" width="80" height="30" as="geometry" />
        </mxCell>
        <mxCell id="euOmDowTNybzlJLy25Rz-54" value="&amp;lt;&amp;lt;include&amp;gt;&amp;gt;" style="text;strokeColor=none;align=center;fillColor=none;html=1;verticalAlign=middle;whiteSpace=wrap;rounded=0;" vertex="1" parent="WIyWlLk6GJQsqaUBKTNV-1">
          <mxGeometry x="340" y="500" width="80" height="30" as="geometry" />
        </mxCell>
        <mxCell id="euOmDowTNybzlJLy25Rz-57" value="" style="endArrow=classic;html=1;rounded=0;" edge="1" parent="WIyWlLk6GJQsqaUBKTNV-1" source="euOmDowTNybzlJLy25Rz-17" target="euOmDowTNybzlJLy25Rz-47">
          <mxGeometry width="50" height="50" relative="1" as="geometry">
            <mxPoint x="300" y="450" as="sourcePoint" />
            <mxPoint x="350" y="400" as="targetPoint" />
          </mxGeometry>
        </mxCell>
        <mxCell id="euOmDowTNybzlJLy25Rz-58" value="" style="endArrow=classic;html=1;rounded=0;entryX=0.392;entryY=0.05;entryDx=0;entryDy=0;entryPerimeter=0;" edge="1" parent="WIyWlLk6GJQsqaUBKTNV-1" source="euOmDowTNybzlJLy25Rz-17" target="euOmDowTNybzlJLy25Rz-46">
          <mxGeometry width="50" height="50" relative="1" as="geometry">
            <mxPoint x="320.94" y="500" as="sourcePoint" />
            <mxPoint x="339.0668882175227" y="600" as="targetPoint" />
          </mxGeometry>
        </mxCell>
        <mxCell id="euOmDowTNybzlJLy25Rz-59" value="System-Online Schedule management" style="text;strokeColor=none;align=center;fillColor=none;html=1;verticalAlign=middle;whiteSpace=wrap;rounded=0;" vertex="1" parent="WIyWlLk6GJQsqaUBKTNV-1">
          <mxGeometry x="215" y="100" width="300" height="30" as="geometry" />
        </mxCell>
      </root>
    </mxGraphModel>
  </diagram>
</mxfile>
